<?xml version="1.0" encoding="utf-8"?>
<!-- Generator: Adobe Illustrator 16.0.0, SVG Export Plug-In . SVG Version: 6.00 Build 0)  -->
<!DOCTYPE svg PUBLIC "-//W3C//DTD SVG 1.1//EN" "http://www.w3.org/Graphics/SVG/1.1/DTD/svg11.dtd">
<svg version="1.1" id="Layer_1" xmlns="http://www.w3.org/2000/svg" xmlns:xlink="http://www.w3.org/1999/xlink" x="0px" y="0px"
	 width="25px" height="25px" viewBox="0 0 25 25" enable-background="new 0 0 25 25" xml:space="preserve">
<g id="Layer_2">
</g>
<path d="M23.828,14.406v-3.813h-1.699c-0.229-1.152-0.668-2.23-1.272-3.195l1.515-1.504l-2.616-2.599L18.34,4.701
	c-1.092-0.793-2.354-1.366-3.728-1.649V1.438h-3.84v1.584C9.528,3.261,8.371,3.735,7.345,4.397l-1.328-1.32l-2.617,2.6l1.281,1.272
	c-0.76,1.073-1.305,2.308-1.572,3.643H1.173v3.813h1.943c0.281,1.383,0.863,2.654,1.671,3.754l-1.17,1.162l2.616,2.6l1.268-1.26
	c0.986,0.609,2.09,1.049,3.271,1.275v1.625h3.84v-1.654c1.308-0.271,2.519-0.807,3.574-1.543l1.566,1.557l2.616-2.6l-1.614-1.604
	c0.648-0.994,1.121-2.111,1.366-3.313L23.828,14.406L23.828,14.406z M12.501,18.356c-3.234,0-5.857-2.623-5.857-5.857
	s2.623-5.857,5.857-5.857s5.857,2.623,5.857,5.857S15.735,18.356,12.501,18.356z"/>
</svg>
